<?xml version="1.0" standalone="no"?>
<!DOCTYPE svg PUBLIC "-//W3C//DTD SVG 20010904//EN"
 "http://www.w3.org/TR/2001/REC-SVG-20010904/DTD/svg10.dtd">
<svg version="1.0" xmlns="http://www.w3.org/2000/svg"
 width="533.000000pt" height="468.000000pt" viewBox="0 0 533.000000 468.000000"
 preserveAspectRatio="xMidYMid meet">
<metadata>
Created by potrace 1.16, written by Peter Selinger 2001-2019
</metadata>
<g transform="translate(0.000000,468.000000) scale(0.100000,-0.100000)"
fill="#000000" stroke="none">
<path d="M3486 4300 c-73 -22 -110 -102 -81 -176 21 -55 65 -84 130 -84 42 0
52 5 86 39 35 34 39 44 39 87 0 60 -31 108 -83 129 -42 17 -49 17 -91 5z"/>
<path d="M1902 3940 c-39 -24 -57 -63 -118 -248 -90 -276 -129 -566 -150
-1124 l-6 -178 -334 0 c-289 0 -335 -2 -348 -16 -21 -21 -20 -47 2 -67 17 -15
56 -17 351 -17 l332 0 -7 -120 -7 -120 66 0 c36 0 68 -3 70 -7 3 -5 -15 -179
-39 -388 -102 -900 -103 -919 -54 -1014 63 -122 234 -181 361 -124 110 49 169
140 169 261 0 41 -32 324 -71 631 -38 306 -70 590 -71 632 -1 89 24 148 75
179 66 41 150 19 247 -65 30 -27 70 -54 87 -62 28 -11 32 -17 28 -41 -3 -15
-17 -128 -31 -252 -72 -649 -95 -865 -101 -967 -6 -112 -6 -113 26 -177 53
-107 136 -159 256 -160 53 0 82 6 118 23 64 32 132 109 153 176 17 52 16 71
-16 521 -18 257 -30 490 -27 519 13 125 107 208 237 209 89 1 153 -31 195 -99
43 -70 43 -135 0 -635 -20 -234 -34 -444 -31 -467 18 -134 141 -244 276 -247
170 -3 300 123 300 292 0 91 -30 408 -115 1220 -14 128 -25 244 -25 258 l0 24
533 0 c505 0 535 1 550 18 22 24 21 45 -1 65 -17 15 -70 17 -558 17 l-539 0
-23 223 c-32 311 -33 298 43 312 57 10 93 31 115 68 19 30 20 53 20 484 0 397
-2 453 -16 467 -8 9 -22 16 -29 16 -7 0 -21 -7 -29 -16 -14 -14 -16 -68 -16
-447 0 -471 -1 -477 -56 -477 -64 0 -138 -60 -149 -123 -4 -18 5 -138 19 -267
14 -129 23 -236 20 -239 -11 -11 -79 36 -97 67 -19 32 -19 42 -7 237 l12 203
-23 41 c-24 44 -85 81 -132 81 -57 0 -57 3 -57 482 l0 438 -25 12 c-21 9 -28
8 -45 -7 -19 -18 -20 -30 -20 -463 0 -387 2 -448 16 -478 20 -41 65 -71 123
-80 70 -11 72 -19 55 -233 -7 -102 -11 -196 -7 -210 22 -93 97 -165 191 -186
17 -3 32 -7 32 -8 0 -1 9 -88 20 -192 30 -288 108 -1064 120 -1203 12 -136 7
-171 -38 -231 -75 -101 -244 -91 -313 17 -37 59 -37 69 2 520 38 439 41 567
16 639 -23 66 -80 131 -148 168 -50 28 -62 30 -154 30 -89 0 -106 -3 -157 -28
-91 -45 -156 -130 -179 -237 -11 -49 -8 -100 41 -771 15 -202 13 -264 -9 -307
-33 -65 -95 -102 -171 -102 -74 0 -162 64 -176 128 -3 15 -7 33 -10 40 -6 19
65 696 132 1253 l6 55 50 18 c109 39 177 144 185 290 3 45 -2 136 -11 206 -20
156 -12 177 79 228 78 43 117 82 153 151 42 80 56 150 56 271 -2 251 -91 499
-228 636 -99 98 -186 117 -294 63 -76 -37 -137 -105 -193 -212 -82 -157 -119
-311 -119 -491 0 -222 62 -344 215 -425 27 -15 57 -40 68 -58 18 -31 18 -36
-8 -260 -36 -320 -33 -305 -55 -293 -11 6 -40 28 -65 50 -58 50 -126 85 -183
95 -148 24 -282 -108 -282 -279 0 -28 34 -329 76 -668 88 -701 87 -669 8 -745
-92 -89 -238 -63 -294 52 -29 61 -29 72 52 792 46 415 60 569 52 590 -11 32
-67 73 -100 73 -23 0 -24 3 -24 69 l0 68 81 6 c148 10 270 96 320 225 27 70
27 85 -1 806 -15 380 -25 539 -35 562 -27 65 -121 93 -183 54z m94 -91 c8 -14
56 -1114 52 -1204 -3 -42 -11 -86 -23 -110 -27 -55 -88 -111 -142 -129 -57
-20 -153 -22 -154 -3 -9 217 24 682 67 942 25 154 102 416 144 496 12 21 45
26 56 8z m758 -13 c80 -47 169 -202 217 -376 19 -70 23 -109 23 -225 1 -122
-2 -147 -22 -196 -28 -71 -76 -121 -153 -159 -69 -35 -109 -88 -116 -153 -3
-24 2 -106 11 -183 23 -202 8 -275 -71 -344 l-38 -34 -3 27 c-2 14 9 122 23
239 14 117 26 237 26 267 0 76 -37 134 -116 177 -108 60 -151 120 -176 243
-36 187 50 516 172 655 80 90 144 108 223 62z"/>
<path d="M3402 3894 l-22 -15 0 -369 c0 -322 2 -371 16 -384 18 -19 45 -21 62
-4 9 9 12 109 12 390 0 363 -1 378 -19 388 -25 13 -22 13 -49 -6z"/>
<path d="M3580 3890 c-19 -19 -20 -33 -20 -383 0 -340 1 -365 18 -380 24 -22
45 -21 65 1 15 17 17 58 17 385 l0 366 -22 15 c-29 20 -34 20 -58 -4z"/>
<path d="M685 2465 c-80 -28 -113 -110 -76 -184 45 -88 154 -101 220 -25 26
29 31 43 31 84 0 41 -5 55 -31 84 -27 32 -41 39 -89 51 -8 2 -33 -2 -55 -10z"/>
<path d="M2562 900 c-84 -52 -79 -176 10 -230 62 -37 137 -15 178 52 24 40 25
79 3 125 -32 69 -123 94 -191 53z"/>
</g>
</svg>
